<?xml version="1.0" encoding="UTF-8"?>
<svg width="22px" height="29px" viewBox="0 0 22 29" version="1.1" xmlns="http://www.w3.org/2000/svg" xmlns:xlink="http://www.w3.org/1999/xlink">
    <!-- Generator: Sketch 46.2 (44496) - http://www.bohemiancoding.com/sketch -->
    <title>icon-datos-personales</title>
    <desc>Created with Sketch.</desc>
    <defs></defs>
    <g id="Page-1" stroke="none" stroke-width="1" fill="none" fill-rule="evenodd">
        <g id="Form-Actualizar-Form" transform="translate(-389.000000, -181.000000)" fill="#0A0B09">
            <g id="Datos-personales" transform="translate(389.000000, 181.000000)">
                <g id="Group-2">
                    <g id="icon-datos-personales">
                        <path d="M20.6820276,27.677193 L1.31797235,27.677193 L1.31797235,23.3073942 C1.31797235,21.5618907 2.73558975,20.1417569 4.4780696,20.1417569 C4.50173694,20.1417569 5.54710087,20.116355 6.37309109,19.7403509 L9.845879,24.6946185 C10.1098262,25.071187 10.5417552,25.2960218 11.0010707,25.2960218 C11.0010707,25.2960218 11.0010707,25.2960218 11.0011834,25.2960218 C11.4604425,25.2960218 11.8923715,25.071187 12.1563187,24.6946185 L15.6285994,19.7410847 C16.570616,20.1418697 17.4983194,20.1418697 17.5219868,20.1418697 C19.2644102,20.1418697 20.6820276,21.5619471 20.6820276,23.3074506 L20.6820276,27.677193 Z M9.38763051,15.9754386 C9.90170302,16.1634055 10.4425537,16.2638666 11.000225,16.2638666 C11.5535084,16.2638666 12.0940777,16.1665875 12.6115819,15.9789047 C12.8489846,17.2284755 13.5368337,18.3175812 14.4976959,19.0673463 L11.0922045,23.9658501 C11.0699269,23.9978408 11.0390983,24.0140351 11.0003375,24.0140351 C10.9616893,24.0140351 10.9308607,23.9978408 10.9086393,23.9659069 L7.50230415,19.0662667 C8.46327884,18.3156492 9.15090287,17.225748 9.38763051,15.9754386 Z M6.28571429,9.36385429 C7.10563172,8.63330508 7.75386644,7.72418969 8.17580237,6.71578947 C8.23983111,6.77484197 8.30707257,6.83068264 8.37730129,6.88314244 C8.81332805,7.20843828 9.33226528,7.38046811 9.87803145,7.38046811 L14.3066114,7.38046811 C14.9331463,7.38046811 15.4732761,7.75619524 15.7142857,8.29392228 C15.7142294,8.2985428 15.713553,8.30299428 15.713553,8.30755845 C15.713553,11.9746169 13.5852735,14.9578947 10.9692256,14.9578947 C9.83068625,14.9578947 8.72658488,14.3753148 7.86050587,13.3174976 C7.01499948,12.2849242 6.46122971,10.8904852 6.28571429,9.36385429 Z M8.4087937,2.04133904 C8.64600996,1.97250849 8.89653333,1.93169696 9.15342833,1.92009313 C9.2487772,1.91579122 9.34203979,1.8904892 9.42650614,1.8458852 C10.0846445,1.49878906 10.7817457,1.32280702 11.4985256,1.32280702 C14.1585391,1.32280702 16.3225806,3.71166844 16.3225806,6.64800439 C16.3225806,6.73613692 16.3200997,6.82381662 16.3162654,6.91115669 C15.8003327,6.38519171 15.0835528,6.05835983 14.2918922,6.05835983 L9.86158117,6.05835983 C9.59803261,6.05835983 9.34779117,5.97526506 9.13797855,5.81801896 C8.95883996,5.68381072 8.82035573,5.50341356 8.73758096,5.29635588 C8.60947178,4.97609008 8.29365332,4.77576828 7.94975459,4.79750425 C7.60461537,4.81952323 7.31428342,5.06014711 7.22711053,5.39626206 C6.97038469,6.38660681 6.45839905,7.29883795 5.75611036,8.03859649 C5.10270842,5.33858252 6.28213615,2.65815355 8.4087937,2.04133904 Z M17.6861605,18.8309121 C17.6631866,18.8284199 14.3363772,18.9268613 13.8417332,15.3496094 C14.3913564,14.964793 14.8979107,14.4652227 15.3441797,13.8590547 C16.2123326,12.6797402 16.7717211,11.2004004 16.9709786,9.60030273 C17.0394487,9.53811133 17.0961213,9.46085352 17.1342794,9.36971875 C17.4948056,8.50793164 17.677637,7.58774805 17.677637,6.63459961 C17.677637,2.97629492 14.9274889,0 11.5468855,0 C10.6628146,0 9.80499144,0.204359375 8.9948659,0.607923828 C8.68581926,0.631599609 8.38298178,0.686144531 8.09256261,0.7703125 C6.70413884,1.17285742 5.5742982,2.2058125 4.91110387,3.67903516 C4.26727082,5.1094375 4.14037825,6.79325 4.55390805,8.42047852 C4.64134426,8.76423047 4.75237526,9.1020918 4.88412226,9.42477344 C4.91979669,9.51211328 4.9729132,9.58653906 5.03675461,9.64782422 C5.35957429,12.1453926 6.54382972,14.2147578 8.1586619,15.3445684 C7.66249387,18.9279375 4.33692626,18.8284766 4.31395238,18.8309688 C1.9215645,18.9123613 0,20.8893457 0,23.309373 L0,28.3469902 C0,28.7076777 0.291322319,29 0.650776016,29 L21.3492804,29 C21.7086212,29 22,28.7076777 22,28.3469902 L22,23.309373 C22,20.8892891 20.0785484,18.9123047 17.6861605,18.8309121 L17.6861605,18.8309121 Z" id="user"></path>
                    </g>
                </g>
            </g>
        </g>
    </g>
</svg>