<?xml version="1.0" encoding="UTF-8"?>
<svg width="29px" height="30px" viewBox="0 0 29 30" version="1.1" xmlns="http://www.w3.org/2000/svg" xmlns:xlink="http://www.w3.org/1999/xlink">
    <!-- Generator: Sketch 46.2 (44496) - http://www.bohemiancoding.com/sketch -->
    <title>Domicilio</title>
    <desc>Created with Sketch.</desc>
    <defs></defs>
    <g id="Page-1" stroke="none" stroke-width="1" fill="none" fill-rule="evenodd">
        <g id="Form-Actualizar-Form" transform="translate(-389.000000, -512.000000)" fill-rule="nonzero" fill="#000000">
            <g id="Mi-domicilio" transform="translate(389.000000, 512.000000)">
                <g id="Group-2">
                    <g id="home">
                        <g id="Domicilio">
                            <path d="M28.8404013,13.689026 L24.4998555,9.54561809 L24.4998555,2.75764585 L19.4998028,2.75764585 L19.4998028,4.77306605 L14.49975,0 L0.159598655,13.689026 C-0.0424034765,13.8822925 -0.0544036032,14.2076587 0.133598381,14.4158314 C0.32110036,14.6234901 0.6376037,14.6353123 0.840605843,14.4425598 L2.50012336,12.8583912 L2.50012336,30 L10.5002078,30 L18.5002922,30 L26.5003766,30 L26.5003766,12.8578772 L28.1598942,14.4420457 C28.2558952,14.5340529 28.3783965,14.5792855 28.5003978,14.5792855 C28.6348992,14.5792855 28.7684006,14.5242868 28.8664016,14.4153174 C29.0544036,14.2076587 29.0424035,13.8822925 28.8404013,13.689026 Z M20.4998133,3.78565921 L23.499845,3.78565921 L23.499845,8.59110768 L20.4998133,5.72757646 L20.4998133,3.78565921 Z M11.4997183,28.9719866 L11.4997183,18.1454639 C11.4997183,17.8797224 11.7097206,17.6638396 11.9682233,17.6638396 L17.0312767,17.6638396 C17.2897794,17.6638396 17.4997817,17.8797224 17.4997817,18.1454639 L17.4997817,28.9719866 L11.4997183,28.9719866 L11.4997183,28.9719866 Z M25.4998661,28.9719866 L18.4997922,28.9719866 L18.4997922,18.1454639 C18.4997922,17.3127731 17.8412853,16.6358263 17.0312767,16.6358263 L11.9682233,16.6358263 C11.1582147,16.6358263 10.4997078,17.3127731 10.4997078,18.1454639 L10.4997078,28.9719866 L3.49963391,28.9719866 L3.49963391,11.9033667 L14.49975,1.40272424 L21.6398254,8.21845284 L24.4998555,10.9483423 L24.4998555,10.9483423 L25.4998661,11.9028527 L25.4998661,28.9719866 Z" id="Shape"></path>
                        </g>
                    </g>
                </g>
            </g>
        </g>
    </g>
</svg>