<?xml version="1.0" encoding="UTF-8"?>
<svg width="165px" height="165px" viewBox="0 0 165 165" version="1.1" xmlns="http://www.w3.org/2000/svg" xmlns:xlink="http://www.w3.org/1999/xlink">
    <!-- Generator: Sketch 46.2 (44496) - http://www.bohemiancoding.com/sketch -->
    <title>Artboard</title>
    <desc>Created with Sketch.</desc>
    <defs>
        <polygon id="path-1" points="15.93632 17.8333333 4.57142857e-05 17.8333333 4.57142857e-05 0.0839721368 15.93632 0.0839721368 15.93632 17.8333333"></polygon>
        <polygon id="path-3" points="18.9829756 17.8333333 0.0128462687 17.8333333 0.0128462687 0.0839904274 18.9829756 0.0839904274 18.9829756 17.8333333"></polygon>
        <polygon id="path-5" points="18.9542965 17.8333333 0.082499505 17.8333333 0.082499505 0.0839904274 18.9542965 0.0839904274 18.9542965 17.8333333"></polygon>
        <polygon id="path-7" points="0.0209874346 17.8333333 17.9865236 17.8333333 17.9865236 0.0839904274 0.0209874346 0.0839904274"></polygon>
    </defs>
    <g id="desktop" stroke="none" stroke-width="1" fill="none" fill-rule="evenodd">
        <g id="Artboard">
            <rect id="Rectangle-9" fill="#005EB8" x="0" y="0" width="165" height="165"></rect>
            <g id="Page-1" transform="translate(19.000000, 103.000000)">
                <path d="M33.5111555,0 C35.3147099,0 36.6498163,0.516706731 37.8758587,1.55003005 C38.0381864,1.6836238 38.0381864,1.88338341 37.8941986,2.01688702 L36.4874886,3.36661659 C36.3606701,3.48317308 36.1622479,3.48317308 36.0361122,3.36661659 C35.3692419,2.81655649 34.4849266,2.51655649 33.6011966,2.51655649 C31.5631255,2.51655649 30.0662767,4.08299279 30.0662767,5.94987981 C30.0662767,7.79990986 31.58088,9.33290264 33.6195365,9.33290264 C34.467172,9.33290264 35.3869965,9.0499399 36.0361122,8.53323317 C36.1622479,8.43317308 36.3968621,8.43317308 36.5052432,8.55027043 L37.9119532,9.93335337 C38.0381864,10.0499099 38.0203343,10.2667067 37.8941986,10.3832632 C36.6674733,11.4833834 35.1162877,12 33.5111555,12 C29.9040466,12 27,9.34984976 27,6.01667668 C27,2.68359375 29.9040466,0 33.5111555,0" id="Fill-1" fill="#EEC823"></path>
                <path d="M40,0.325354267 C40,0.15363694 40.1418691,0 40.3365801,0 L47.66409,0 C47.8587053,0 48,0.15363694 48,0.325354267 L48,2.19384649 C48,2.36547109 47.8587053,2.51975707 47.66409,2.51975707 L42.7607993,2.51975707 L42.7607993,4.6454544 L46.7968888,4.6454544 C46.9735072,4.6454544 47.1327989,4.79974038 47.1327989,4.97099411 L47.1327989,6.83994993 C47.1327989,7.02854229 46.9735072,7.16539692 46.7968888,7.16539692 L42.7607993,7.16539692 L42.7607993,9.47959389 L47.66409,9.47959389 C47.8587053,9.47959389 48,9.63387987 48,9.80559719 L48,11.6739967 C48,11.8458067 47.8587053,12 47.66409,12 L40.3365801,12 C40.1418691,12 40,11.8458067 40,11.6739967 L40,0.325354267 Z" id="Fill-3" fill="#EEC823"></path>
                <path d="M52,0.299909856 C52,0.13296274 52.1494093,0 52.3152599,0 L52.7309645,0 L59.3586991,6.39978966 L59.3750505,6.39978966 L59.3750505,0.483263221 C59.3750505,0.316316106 59.5081982,0.166316106 59.6908495,0.166316106 L61.6841112,0.166316106 C61.8505009,0.166316106 62,0.316316106 62,0.483263221 L62,11.7000901 C62,11.8664063 61.8505009,12 61.6841112,12 L61.4185347,12 C61.3688514,12 61.2357037,11.9501502 61.2024617,11.9167969 L54.6413009,5.29966947 L54.6244104,5.29966947 L54.6244104,11.5167368 C54.6244104,11.6830529 54.4912627,11.8335937 54.3090607,11.8335937 L52.3322402,11.8335937 C52.1658506,11.8335937 52.0163515,11.6830529 52.0163515,11.5167368 L52,0.299909856 Z" id="Fill-5" fill="#EEC823"></path>
                <path d="M67.6886894,2.51975707 L65.3151706,2.51975707 C65.1331239,2.51975707 65,2.36547109 65,2.19440281 L65,0.325354267 C65,0.154193259 65.1331239,0 65.3151706,0 L72.6843806,0 C72.8670557,0 73,0.154193259 73,0.325354267 L73,2.19440281 C73,2.36547109 72.8670557,2.51975707 72.6843806,2.51975707 L70.3114004,2.51975707 L70.3114004,11.6739967 C70.3114004,11.845714 70.1614901,12 69.995781,12 L68.0043088,12 C67.8379713,12 67.6886894,11.845714 67.6886894,11.6739967 L67.6886894,2.51975707 Z" id="Fill-7" fill="#EEC823"></path>
                <path d="M77,0.325354267 C77,0.15363694 77.1339542,0 77.3193106,0 L82.339825,0 C84.3545877,0 86,1.66237579 86,3.70249262 C86,5.27938063 84.9759538,6.548253 83.5147173,7.14842917 L85.8151885,11.5029284 C85.9326142,11.7258271 85.8151885,12 85.5296617,12 L83.2964854,12 C83.1624403,12 83.0615433,11.9144195 83.0279412,11.8458067 L80.7946741,7.30262243 L79.6362196,7.30262243 L79.6362196,11.6739967 C79.6362196,11.8458067 79.4851011,12 79.3169998,12 L77.3193106,12 C77.1339542,12 77,11.8458067 77,11.6739967 L77,0.325354267 Z M82.1214115,5.12509465 C82.8095277,5.12509465 83.3972917,4.47438612 83.3972917,3.75432307 C83.3972917,3.03435274 82.8095277,2.4510516 82.1214115,2.4510516 L79.6362196,2.4510516 L79.6362196,5.12509465 L82.1214115,5.12509465 Z" id="Fill-9" fill="#EEC823"></path>
                <path d="M93.9915148,0 C97.3292512,0 100,2.68359375 100,6.01667668 C100,9.34984976 97.3292512,12 93.9915148,12 C90.6537785,12 88,9.34984976 88,6.01667668 C88,2.68359375 90.6537785,0 93.9915148,0 M93.9915148,9.33290264 C95.827649,9.33290264 97.3292512,7.83326322 97.3292512,6.01667668 C97.3292512,4.18323317 95.827649,2.66655649 93.9915148,2.66655649 C92.1725316,2.66655649 90.6702072,4.18323317 90.6702072,6.01667668 C90.6702072,7.83326322 92.1725316,9.33290264 93.9915148,9.33290264" id="Fill-11" fill="#EEC823"></path>
                <g id="Group-15" transform="translate(0.000000, 19.000000)">
                    <mask id="mask-2" fill="white">
                        <use xlink:href="#path-1"></use>
                    </mask>
                    <g id="Clip-14"></g>
                    <path d="M9.13732571,4.0004465 C10.3166629,4.0004465 11.88704,4.43567128 12.8260114,5.63800376 L13.0145371,5.89096274 L15.93632,3.73806786 L15.7313371,3.4670012 C14.0159543,1.31849607 11.47104,0.0839721368 8.78898286,0.0839721368 C3.93814857,0.0839721368 4.57142857e-05,4.07159692 4.57142857e-05,8.95509521 C4.57142857e-05,13.8610909 3.93814857,17.8333516 8.78898286,17.8333516 C11.46336,17.8333516 14.0524343,16.5605089 15.69312,14.4327636 L15.8920686,14.1799875 L12.9953371,12.0002969 L12.7973943,12.3059328 C12.0659657,13.4850362 10.35936,13.8993183 9.13732571,13.8993183 C6.71574857,13.8993183 4.81275429,11.7430397 4.81275429,8.95509521 C4.81275429,6.18022855 6.71574857,4.0004465 9.13732571,4.0004465" id="Fill-13" fill="#FEFEFE" mask="url(#mask-2)"></path>
                </g>
                <g id="Group-18" transform="translate(20.000000, 19.000000)">
                    <mask id="mask-4" fill="white">
                        <use xlink:href="#path-3"></use>
                    </mask>
                    <g id="Clip-17"></g>
                    <path d="M9.49828905,13.8995195 C7.01080149,13.8995195 4.98583632,11.687546 4.98583632,8.95529641 C4.98583632,6.21234684 7.01080149,4.00055624 9.49828905,4.00055624 C11.9956075,4.00055624 14.0412741,6.21234684 14.0412741,8.95529641 C14.0412741,11.687546 11.9956075,13.8995195 9.49828905,13.8995195 M9.49828905,0.0839904274 C4.26383632,0.0839904274 0.0128462687,4.07179812 0.0128462687,8.95529641 C0.0128462687,13.8612921 4.26383632,17.8333699 9.49828905,17.8333699 C14.7246124,17.8333699 18.9829756,13.8612921 18.9829756,8.95529641 C18.9829756,4.07179812 14.7246124,0.0839904274 9.49828905,0.0839904274" id="Fill-16" fill="#FEFEFE" mask="url(#mask-4)"></path>
                </g>
                <g id="Group-21" transform="translate(61.000000, 19.000000)">
                    <mask id="mask-6" fill="white">
                        <use xlink:href="#path-5"></use>
                    </mask>
                    <g id="Clip-20"></g>
                    <path d="M9.53095495,13.8995195 C7.05051436,13.8995195 5.03105891,11.687546 5.03105891,8.95529641 C5.03105891,6.21234684 7.05051436,4.00055624 9.53095495,4.00055624 C12.0194847,4.00055624 14.0398807,6.21234684 14.0398807,8.95529641 C14.0398807,11.687546 12.0194847,13.8995195 9.53095495,13.8995195 M9.53095495,0.0839904274 C4.31611337,0.0839904274 0.082499505,4.07179812 0.082499505,8.95529641 C0.082499505,13.8612921 4.31611337,17.8333699 9.53095495,17.8333699 C14.7241629,17.8333699 18.9542965,13.8612921 18.9542965,8.95529641 C18.9542965,4.07179812 14.7241629,0.0839904274 9.53095495,0.0839904274" id="Fill-19" fill="#FEFEFE" mask="url(#mask-6)"></path>
                </g>
                <path d="M93.3282645,19.2578348 C93.2494025,19.283091 93.5914754,19.1975793 93.5914754,19.1975793 C94.2050508,19.0555958 94.6627449,19.0296774 95.1537895,19.0052726 C95.426029,18.9917458 95.7068365,19.0052726 95.9397372,19.0341233 C100.117946,19.3395628 103,22.7021403 103,27.4380131 L103,37 L98.3535944,37 L98.3535944,27.5250383 C98.3535944,24.5156695 96.5137895,23.1631846 94.6760114,23.1631846 C92.7637014,23.1631846 90.6421677,24.721503 90.6421677,26.8232558 L90.6421677,37 L86,37 L86,19.35763 L86.6144967,19.796918 C87.3523533,20.2220171 88.2308901,20.4880115 89.1498713,20.4880115 C89.8946376,20.4880115 90.7453516,20.297502 91.4027801,19.9929138 C91.4027801,19.9929138 92.810042,19.4079532 93.3282645,19.2578348" id="Fill-22" fill="#FEFEFE"></path>
                <g id="Group-26" transform="translate(109.000000, 19.000000)">
                    <mask id="mask-8" fill="white">
                        <use xlink:href="#path-7"></use>
                    </mask>
                    <g id="Clip-25"></g>
                    <path d="M9.0758356,13.8995195 C6.82696649,13.8995195 4.98804503,11.687546 4.98804503,8.95529641 C4.98804503,6.21234684 6.82696649,4.00055624 9.0758356,4.00055624 C11.3614586,4.00055624 13.2084848,6.21234684 13.2084848,8.95529641 C13.2084848,11.687546 11.3614586,13.8995195 9.0758356,13.8995195 L9.0758356,13.8995195 Z M12.6202335,16.7638272 C13.2550398,16.5137032 13.9523277,16.3546665 14.6928723,16.3546665 C15.9344953,16.3546665 17.0831969,16.7785511 17.9794272,17.5006639 L17.9865895,0.424469915 L17.3840136,0.850275043 C16.6052073,1.26126479 15.7124639,1.51742462 14.7752387,1.51742462 C13.9936995,1.51742462 13.116223,1.33332974 12.4706733,1.03967419 C12.4706733,1.03967419 12.3373225,0.978034872 12.152045,0.903317778 C12.0168094,0.863261368 11.2487466,0.529732308 11.0123906,0.439285299 C10.9684743,0.439285299 10.6480555,0.352404957 10.535155,0.321128034 C10.535155,0.321128034 9.62290366,0.128345128 9.13671518,0.107402393 C8.97923874,0.0996288889 8.84588796,0.0839904274 8.69632775,0.0839904274 L8.62819162,0.0839904274 L8.66673613,0.0839904274 L8.60755288,0.0839904274 C3.86083037,0.0839904274 0.0209874346,4.07179812 0.0209874346,8.95529641 C0.0997727749,13.923846 3.86083037,17.8333699 8.60755288,17.8333699 C9.80026492,17.8333699 10.933511,17.5805938 11.9854272,17.0904973 L12.6202335,16.7638272 Z" id="Fill-24" fill="#FEFEFE" mask="url(#mask-8)"></path>
                </g>
                <path d="M49.9039454,26.8208465 C49.9039454,25.3771848 50.9922065,24.1358269 52.4387725,23.8795881 C52.6006819,23.854513 54.7181685,23.5093287 56,25.0940731 L56,19.1371828 C56,19.1371828 55.2289333,19.0004527 54.4470531,19.0004527 C53.2753044,18.9869216 52.0815392,19.2773193 50.9922065,19.7924464 L50.5499269,20.0099844 C49.877058,20.316468 49.1181685,20.4835721 48.3269362,20.4835721 C47.3358013,20.4835721 46.423283,20.2175871 45.6356551,19.7726702 L45,19.3527338 L45,37 L49.9039454,37 L49.9039454,26.8208465 Z" id="Fill-27" fill="#FEFEFE"></path>
            </g>
        </g>
    </g>
</svg>