<?xml version="1.0" encoding="UTF-8"?>
<svg width="249px" height="109px" viewBox="0 0 249 109" version="1.1" xmlns="http://www.w3.org/2000/svg" xmlns:xlink="http://www.w3.org/1999/xlink">
    <!-- Generator: Sketch 46.2 (44496) - http://www.bohemiancoding.com/sketch -->
    <title>Artboard</title>
    <desc>Created with Sketch.</desc>
    <defs>
        <polygon id="path-1" points="24.9005 27.7407407 7.14285714e-05 27.7407407 7.14285714e-05 0.130623324 24.9005 0.130623324 24.9005 27.7407407"></polygon>
        <polygon id="path-3" points="28.9740154 27.7407407 0.0196074627 27.7407407 0.0196074627 0.130651776 28.9740154 0.130651776 28.9740154 27.7407407"></polygon>
        <polygon id="path-5" points="28.9302421 27.7407407 0.125920297 27.7407407 0.125920297 0.130651776 28.9302421 0.130651776 28.9302421 27.7407407"></polygon>
        <polygon id="path-7" points="0.0326471204 27.7407407 27.9790366 27.7407407 27.9790366 0.130651776 0.0326471204 0.130651776"></polygon>
    </defs>
    <g id="desktop" stroke="none" stroke-width="1" fill="none" fill-rule="evenodd">
        <g id="Artboard">
            <rect id="Rectangle-9" fill="#005EB8" x="0" y="0" width="249" height="109"></rect>
            <g id="Page-1" transform="translate(27.000000, 26.000000)">
                <path d="M51.0626948,0 C53.8500063,0 55.9133525,0.775060096 57.8081453,2.32504507 C58.0590154,2.5254357 58.0590154,2.82507512 57.8364888,3.02533053 L55.6624824,5.04992488 C55.4664901,5.22475962 55.1598376,5.22475962 54.9649007,5.04992488 C53.9342829,4.22483474 52.5676138,3.77483474 51.2018493,3.77483474 C48.052103,3.77483474 45.7387913,6.12448918 45.7387913,8.92481971 C45.7387913,11.6998648 48.0795419,13.999354 51.2301928,13.999354 C52.5401749,13.999354 53.9617219,13.5749099 54.9649007,12.7998498 C55.1598376,12.6497596 55.5224233,12.6497596 55.6899213,12.8254056 L57.8639277,14.90003 C58.0590154,15.0748648 58.0314257,15.4000601 57.8364888,15.5748948 C55.9406406,17.2250751 53.5433538,18 51.0626948,18 C45.488072,18 41,14.0247746 41,9.02501502 C41,4.02539062 45.488072,0 51.0626948,0" id="Fill-1" fill="#EEC823"></path>
                <path d="M62,0.488031401 C62,0.230455409 62.2128036,0 62.5048702,0 L73.496135,0 C73.7880579,0 74,0.230455409 74,0.488031401 L74,3.29076973 C74,3.54820664 73.7880579,3.77963561 73.496135,3.77963561 L66.141199,3.77963561 L66.141199,6.96818161 L72.1953333,6.96818161 C72.4602609,6.96818161 72.6991983,7.19961058 72.6991983,7.45649117 L72.6991983,10.2599249 C72.6991983,10.5428134 72.4602609,10.7480954 72.1953333,10.7480954 L66.141199,10.7480954 L66.141199,14.2193908 L73.496135,14.2193908 C73.7880579,14.2193908 74,14.4508198 74,14.7083958 L74,17.510995 C74,17.7687101 73.7880579,18 73.496135,18 L62.5048702,18 C62.2128036,18 62,17.7687101 62,17.510995 L62,0.488031401 Z" id="Fill-3" fill="#EEC823"></path>
                <path d="M80,0.449864784 C80,0.199444111 80.2390548,0 80.5044158,0 L81.1695431,0 L91.7739185,9.5996845 L91.8000809,9.5996845 L91.8000809,0.724894832 C91.8000809,0.474474159 92.0131171,0.249474159 92.3053591,0.249474159 L95.494578,0.249474159 C95.7608014,0.249474159 96,0.474474159 96,0.724894832 L96,17.5501352 C96,17.7996094 95.7608014,18 95.494578,18 L95.0696555,18 C94.9901622,18 94.7771259,17.9252254 94.7239387,17.8751953 L84.2260815,7.94950421 L84.1990566,7.94950421 L84.1990566,17.2751052 C84.1990566,17.5245793 83.9860204,17.7503906 83.6944971,17.7503906 L80.5315844,17.7503906 C80.2653609,17.7503906 80.0261623,17.5245793 80.0261623,17.2751052 L80,0.449864784 Z" id="Fill-5" fill="#EEC823"></path>
                <path d="M104.033034,3.77963561 L100.472756,3.77963561 C100.199686,3.77963561 100,3.54820664 100,3.29160421 L100,0.488031401 C100,0.231289889 100.199686,0 100.472756,0 L111.526571,0 C111.800583,0 112,0.231289889 112,0.488031401 L112,3.29160421 C112,3.54820664 111.800583,3.77963561 111.526571,3.77963561 L107.967101,3.77963561 L107.967101,17.510995 C107.967101,17.768571 107.742235,18 107.493671,18 L104.506463,18 C104.256957,18 104.033034,17.768571 104.033034,17.510995 L104.033034,3.77963561 Z" id="Fill-7" fill="#EEC823"></path>
                <path d="M119,0.488031401 C119,0.230455409 119.208373,0 119.496705,0 L127.306394,0 C130.44047,0 133,2.49356369 133,5.55373893 C133,7.91907095 131.407039,9.8223795 129.134005,10.7226438 L132.712516,17.2543926 C132.895178,17.5887407 132.712516,18 132.268363,18 L128.794533,18 C128.586018,18 128.429067,17.8716292 128.376797,17.7687101 L124.902826,10.9539336 L123.100786,10.9539336 L123.100786,17.510995 C123.100786,17.7687101 122.865713,18 122.604222,18 L119.496705,18 C119.208373,18 119,17.7687101 119,17.510995 L119,0.488031401 Z M126.96664,7.68764198 C128.037043,7.68764198 128.951343,6.71157918 128.951343,5.6314846 C128.951343,4.55152911 128.037043,3.6765774 126.96664,3.6765774 L123.100786,3.6765774 L123.100786,7.68764198 L126.96664,7.68764198 Z" id="Fill-9" fill="#EEC823"></path>
                <path d="M144.987272,0 C149.993877,0 154,4.02539062 154,9.02501502 C154,14.0247746 149.993877,18 144.987272,18 C139.980668,18 136,14.0247746 136,9.02501502 C136,4.02539062 139.980668,0 144.987272,0 M144.987272,13.999354 C147.741473,13.999354 149.993877,11.7498948 149.993877,9.02501502 C149.993877,6.27484976 147.741473,3.99983474 144.987272,3.99983474 C142.258797,3.99983474 140.005311,6.27484976 140.005311,9.02501502 C140.005311,11.7498948 142.258797,13.999354 144.987272,13.999354" id="Fill-11" fill="#EEC823"></path>
                <g id="Group-15" transform="translate(0.000000, 29.000000)">
                    <mask id="mask-2" fill="white">
                        <use xlink:href="#path-1"></use>
                    </mask>
                    <g id="Clip-14"></g>
                    <path d="M14.2770714,6.22291677 C16.1197857,6.22291677 18.5735,6.89993311 20.0406429,8.77022807 L20.3352143,9.16371981 L24.9005,5.81477223 L24.5802143,5.39311297 C21.8999286,2.05099388 17.9235,0.130623324 13.7327857,0.130623324 C6.15335714,0.130623324 7.14285714e-05,6.33359521 7.14285714e-05,13.9301481 C7.14285714e-05,21.561697 6.15335714,27.7407692 13.7327857,27.7407692 C17.9115,27.7407692 21.9569286,25.7607916 24.5205,22.4509656 L24.8313571,22.0577584 L20.3052143,18.6671285 L19.9959286,19.1425622 C18.8530714,20.976723 16.1865,21.6211618 14.2770714,21.6211618 C10.4933571,21.6211618 7.51992857,18.2669506 7.51992857,13.9301481 C7.51992857,9.61368885 10.4933571,6.22291677 14.2770714,6.22291677" id="Fill-13" fill="#FEFEFE" mask="url(#mask-2)"></path>
                </g>
                <g id="Group-18" transform="translate(31.000000, 29.000000)">
                    <mask id="mask-4" fill="white">
                        <use xlink:href="#path-3"></use>
                    </mask>
                    <g id="Clip-17"></g>
                    <path d="M14.4973886,21.6214748 C10.700697,21.6214748 7.6099607,18.1806271 7.6099607,13.9304611 C7.6099607,9.66365064 10.700697,6.22308748 14.4973886,6.22308748 C18.3090851,6.22308748 21.4314184,9.66365064 21.4314184,13.9304611 C21.4314184,18.1806271 18.3090851,21.6214748 14.4973886,21.6214748 M14.4973886,0.130651776 C6.5079607,0.130651776 0.0196074627,6.33390819 0.0196074627,13.9304611 C0.0196074627,21.56201 6.5079607,27.7407976 14.4973886,27.7407976 C22.4744085,27.7407976 28.9740154,21.56201 28.9740154,13.9304611 C28.9740154,6.33390819 22.4744085,0.130651776 14.4973886,0.130651776" id="Fill-16" fill="#FEFEFE" mask="url(#mask-4)"></path>
                </g>
                <g id="Group-21" transform="translate(94.000000, 29.000000)">
                    <mask id="mask-6" fill="white">
                        <use xlink:href="#path-5"></use>
                    </mask>
                    <g id="Clip-20"></g>
                    <path d="M14.547247,21.6214748 C10.7613114,21.6214748 7.67898465,18.1806271 7.67898465,13.9304611 C7.67898465,9.66365064 10.7613114,6.22308748 14.547247,6.22308748 C18.3455292,6.22308748 21.4292916,9.66365064 21.4292916,13.9304611 C21.4292916,18.1806271 18.3455292,21.6214748 14.547247,21.6214748 M14.547247,0.130651776 C6.58775198,0.130651776 0.125920297,6.33390819 0.125920297,13.9304611 C0.125920297,21.56201 6.58775198,27.7407976 14.547247,27.7407976 C22.4737223,27.7407976 28.9302421,21.56201 28.9302421,13.9304611 C28.9302421,6.33390819 22.4737223,0.130651776 14.547247,0.130651776" id="Fill-19" fill="#FEFEFE" mask="url(#mask-6)"></path>
                </g>
                <path d="M144.639008,29.4010763 C144.513757,29.4403638 145.057049,29.3073456 145.057049,29.3073456 C146.031551,29.0864824 146.758477,29.0461649 147.538371,29.0082017 C147.970752,28.9871602 148.41674,29.0082017 148.786641,29.0530807 C155.42262,29.5282088 160,34.7588849 160,42.1257981 L160,57 L152.620415,57 L152.620415,42.2611706 C152.620415,37.5799303 149.698371,35.4760649 146.779547,35.4760649 C143.742349,35.4760649 140.372855,37.9001158 140.372855,41.1695091 L140.372855,57 L133,57 L133,29.5563133 L133.975965,30.2396502 C135.147855,30.9009155 136.543178,31.3146845 138.002737,31.3146845 C139.185601,31.3146845 140.536735,31.0183364 141.580886,30.5445326 C141.580886,30.5445326 143.815949,29.6345939 144.639008,29.4010763" id="Fill-22" fill="#FEFEFE"></path>
                <g id="Group-26" transform="translate(168.000000, 29.000000)">
                    <mask id="mask-8" fill="white">
                        <use xlink:href="#path-7"></use>
                    </mask>
                    <g id="Clip-25"></g>
                    <path d="M14.1179665,21.6214748 C10.6197257,21.6214748 7.75918115,18.1806271 7.75918115,13.9304611 C7.75918115,9.66365064 10.6197257,6.22308748 14.1179665,6.22308748 C17.6733801,6.22308748 20.5465319,9.66365064 20.5465319,13.9304611 C20.5465319,18.1806271 17.6733801,21.6214748 14.1179665,21.6214748 L14.1179665,21.6214748 Z M19.6314743,26.0770645 C20.6189508,25.6879828 21.7036209,25.4405923 22.8555791,25.4405923 C24.7869927,25.4405923 26.5738618,26.0999684 27.9679979,27.223255 L27.9791393,0.660286534 L27.041799,1.32265007 C25.8303225,1.96196745 24.4416105,2.36043829 22.9837047,2.36043829 C21.767977,2.36043829 20.4030136,2.07406849 19.3988251,1.61727096 C19.3988251,1.61727096 19.1913906,1.52138758 18.9031812,1.40516099 C18.6928147,1.34285102 17.4980503,0.824028034 17.1303853,0.683332688 C17.0620712,0.683332688 16.5636419,0.548185489 16.3880188,0.499532498 C16.3880188,0.499532498 14.9689613,0.199647977 14.2126681,0.167070389 C13.9677047,0.154978272 13.7602702,0.130651776 13.5276209,0.130651776 L13.4216314,0.130651776 L13.4815895,0.130651776 L13.3895267,0.130651776 C6.00573613,0.130651776 0.0326471204,6.33390819 0.0326471204,13.9304611 C0.155202094,21.659316 6.00573613,27.7407976 13.3895267,27.7407976 C15.2448565,27.7407976 17.0076838,27.3475904 18.6439979,26.585218 L19.6314743,26.0770645 Z" id="Fill-24" fill="#FEFEFE" mask="url(#mask-8)"></path>
                </g>
                <path d="M76.5788248,41.1657612 C76.5788248,38.9200653 78.2606828,36.9890641 80.4962848,36.5904704 C80.7465084,36.5514647 84.0189877,36.0145113 86,38.4796692 L86,29.2133954 C86,29.2133954 84.8083514,29.0007042 83.5999911,29.0007042 C81.7891069,28.9796558 79.944197,29.4313856 78.2606828,30.2326944 L77.5771598,30.5710869 C76.5372714,31.0478392 75.3644423,31.3077788 74.1416287,31.3077788 C72.6098747,31.3077788 71.1996192,30.8940244 69.9823761,30.2019314 L69,29.548697 L69,57 L76.5788248,57 L76.5788248,41.1657612 Z" id="Fill-27" fill="#FEFEFE"></path>
            </g>
        </g>
    </g>
</svg>