<?xml version="1.0" encoding="UTF-8"?>
<svg width="169px" height="13px" viewBox="0 0 169 13" version="1.1" xmlns="http://www.w3.org/2000/svg" xmlns:xlink="http://www.w3.org/1999/xlink">
    <!-- Generator: Sketch 46.2 (44496) - http://www.bohemiancoding.com/sketch -->
    <title>Page 1</title>
    <desc>Created with Sketch.</desc>
    <defs></defs>
    <g id="desktop" stroke="none" stroke-width="1" fill="none" fill-rule="evenodd">
        <g id="Artboard-2" transform="translate(-87.000000, -36.000000)">
            <g id="Page-1" transform="translate(87.000000, 36.000000)">
                <path d="M6.32428436,-1.77635684e-15 C8.07675829,-1.77635684e-15 9.37269194,0.550875 10.5637014,1.6518125 C10.7222891,1.7948125 10.7222891,2.0085 10.5813223,2.149875 L9.21490521,3.5888125 C9.09236019,3.7139375 8.9001327,3.7139375 8.77678673,3.5888125 C8.05993839,2.9501875 7.27180569,2.6836875 6.41318957,2.6836875 C4.43324645,2.6836875 2.97872512,4.3525625 2.97872512,6.3431875 C2.97792417,8.3159375 4.4508673,9.9506875 6.42920853,9.9506875 C7.39354976,9.9506875 8.14563981,9.6484375 8.77598578,9.098375 C8.9001327,8.9919375 9.12680095,8.9919375 9.23172512,9.1154375 L10.5981422,10.590125 C10.7214882,10.71525 10.7038673,10.9451875 10.5805213,11.071125 C9.3903128,12.24275 7.88292891,12.7944375 6.32428436,12.7944375 C2.82093839,12.7944375 0,9.9685625 0,6.4155 C0,2.8608125 2.82173934,-1.77635684e-15 6.32428436,-1.77635684e-15" id="Fill-1" fill="#FFD400"></path>
                <path d="M13.9985664,0.515775 C13.9985664,0.3378375 14.1403341,0.1785875 14.3309597,0.1785875 L21.5835427,0.1785875 C21.7765711,0.1785875 21.916737,0.3378375 21.916737,0.5165875 L21.916737,2.4519625 C21.916737,2.6290875 21.7765711,2.7899625 21.5835427,2.7899625 L16.7314005,2.7899625 L16.7314005,4.99265 L20.7241256,4.9934625 C20.9011351,4.9934625 21.0581209,5.1527125 21.0581209,5.33065 L21.0581209,7.269275 C21.0581209,7.4634625 20.9011351,7.607275 20.7241256,7.607275 L16.7314005,7.607275 L16.7314005,10.0049625 L21.5835427,10.0049625 C21.7765711,10.0049625 21.916737,10.1634 21.916737,10.3429625 L21.915936,12.27915 C21.915936,12.4570875 21.7757701,12.61715 21.5835427,12.61715 L14.3309597,12.61715 C14.1395332,12.61715 13.9985664,12.4570875 13.9985664,12.27915 L13.9985664,0.515775 Z" id="Fill-3" fill="#FFD400"></path>
                <path d="M25.5086678,0.3198 C25.5086678,0.142675 25.6672555,0.0004875 25.8418621,0.0004875 L26.103772,0.0004875 C26.2799806,0.0004875 26.4033265,0.1248 26.5434924,0.2669875 L33.2690517,6.82305 L33.2874735,6.82305 L33.2874735,0.516425 C33.2874735,0.3384875 33.4260374,0.178425 33.6198668,0.178425 L35.721554,0.178425 C35.8969616,0.178425 36.0547483,0.3384875 36.0547483,0.516425 L36.0547483,12.4756125 C36.0547483,12.687675 35.8969616,12.794925 35.7207531,12.794925 L35.5461464,12.794925 C35.3707389,12.794925 35.2489948,12.7413 35.1088289,12.5974875 L28.2943645,5.651425 L28.2767436,5.651425 L28.2767436,12.2798 C28.2767436,12.456925 28.1365777,12.6178 27.9427483,12.6178 L25.858682,12.6169875 C25.6840754,12.6169875 25.5262886,12.456925 25.5262886,12.2798 L25.5086678,0.3198 Z" id="Fill-5" fill="#FFD400"></path>
                <path d="M41.7744773,2.7898 L39.2699133,2.7898 C39.0776858,2.7898 38.936719,2.6297375 38.936719,2.4518 L38.936719,0.516425 C38.936719,0.3384875 39.0776858,0.178425 39.2699133,0.178425 L47.0471171,0.178425 C47.2401455,0.178425 47.3795104,0.3384875 47.3795104,0.516425 L47.3795104,2.4526125 C47.3795104,2.6297375 47.2401455,2.7906125 47.0471171,2.7906125 L44.543354,2.7898 L44.543354,12.2798 C44.543354,12.456925 44.3839654,12.6178 44.2101597,12.6178 L42.1084725,12.6178 C41.932264,12.6178 41.7744773,12.456925 41.7744773,12.2798 L41.7744773,2.7898 Z" id="Fill-7" fill="#FFD400"></path>
                <path d="M50.6231891,0.5165875 C50.6231891,0.33865 50.7617531,0.1785875 50.9547815,0.1785875 L56.1921796,0.1794 C58.4180137,0.1794 60.0119,1.9027125 60.0119,4.016025 C60.0119,5.6515875 59.0483597,6.9654 57.4176299,7.5885875 L59.8188716,12.1028375 C59.9422175,12.3319625 59.8188716,12.6179625 59.5193171,12.6179625 L57.1909616,12.6179625 C57.0507957,12.6179625 56.9466725,12.5294 56.9106299,12.4579 L54.5806725,7.747025 L53.3736441,7.747025 L53.3736441,12.2799625 C53.3736441,12.4570875 53.2158573,12.6179625 53.0388479,12.6179625 L50.9539806,12.6179625 C50.7617531,12.6179625 50.6231891,12.4570875 50.6231891,12.2799625 L50.6231891,0.5165875 Z M55.9647104,5.491525 C56.6831607,5.491525 57.2966867,4.9049 57.2966867,4.0704625 C57.2966867,3.2344 56.6831607,2.719275 55.9647104,2.719275 L53.3736441,2.719275 L53.3736441,5.491525 L55.9647104,5.491525 Z" id="Fill-9" fill="#FFD400"></path>
                <path d="M68.9519199,0.001625 C72.4560668,0.001625 75.2593844,2.8624375 75.2593844,6.4163125 C75.2593844,9.969375 72.4552659,12.79525 68.9519199,12.79525 C65.4485739,12.7960625 62.6636782,9.9701875 62.6636782,6.4163125 C62.6636782,2.861625 65.4485739,0.0008125 68.9519199,0.001625 M68.9519199,9.9523125 C70.8798014,9.9523125 72.4552659,8.3533125 72.4552659,6.4163125 C72.4552659,4.4614375 70.8798014,2.84375 68.9519199,2.84375 C67.0432611,2.84375 65.4669957,4.4614375 65.4669957,6.4163125 C65.4669957,8.3533125 67.0432611,9.9523125 68.9519199,9.9523125" id="Fill-11" fill="#FFD400"></path>
                <path d="M87.8086355,2.93499375 C88.6424223,2.93499375 89.7501332,3.24618125 90.414119,4.10743125 L90.5470763,4.28861875 L92.611119,2.74730625 L92.4653464,2.55311875 C91.2559152,1.01424375 89.4577872,0.13024375 87.5619436,0.13024375 C84.1370905,0.13024375 81.3553986,2.98536875 81.3553986,6.48318125 C81.3545976,9.99805625 84.1362896,12.8434313 87.5611427,12.8434313 C89.4513796,12.8442438 91.2823464,11.9326188 92.4381142,10.4083688 L92.579081,10.2271813 L90.5334602,8.66555625 L90.3948962,8.88493125 C89.875882,9.72830625 88.6720573,10.0256813 87.8086355,10.0256813 C86.0978109,10.0256813 84.7538204,8.48193125 84.7538204,6.48318125 C84.7538204,4.49661875 86.0986118,2.93499375 87.8086355,2.93499375" id="Fill-13" fill="#005EB8"></path>
                <path d="M101.793105,0.1301625 C98.216072,0.1301625 95.3118351,2.9861 95.3118351,6.4831 C95.3118351,9.9987875 98.2152711,12.8441625 101.793105,12.8441625 C105.36293,12.8441625 108.272773,9.9987875 108.272773,6.4839125 C108.272773,2.9861 105.36293,0.130975 101.793105,0.1301625 M101.793105,10.0264125 C100.093494,10.0264125 98.7102569,8.441225 98.7102569,6.4831 C98.7110578,4.5201 100.093494,2.935725 101.793105,2.935725 C103.496721,2.935725 104.895977,4.5201 104.895977,6.4831 C104.895176,8.441225 103.496721,10.0264125 101.793105,10.0264125" id="Fill-15" fill="#005EB8"></path>
                <path d="M129.680027,0.130975 C126.099791,0.130975 123.193151,2.9861 123.193151,6.4839125 C123.193151,9.9996 126.099791,12.8441625 129.680027,12.8441625 C133.246648,12.844975 136.149283,9.9996 136.149283,6.4839125 C136.149283,2.9869125 133.247449,0.130975 129.680027,0.130975 M129.680027,10.0264125 C127.978013,10.0264125 126.590772,8.44285 126.590772,6.4839125 C126.590772,4.5209125 127.978013,2.935725 129.680027,2.935725 C131.38925,2.935725 132.775691,4.5209125 132.775691,6.4839125 C132.77489,8.44285 131.38925,10.0264125 129.680027,10.0264125" id="Fill-17" fill="#005EB8"></path>
                <path d="M145.743598,0.3055 C145.689133,0.3225625 145.927015,0.2640625 145.927015,0.2640625 C146.358726,0.16575 146.679906,0.147875 147.023512,0.131625 C147.214138,0.121875 147.41037,0.131625 147.573764,0.15275 C150.501228,0.3615625 152.522019,2.6918125 152.522019,5.971875 L152.522019,12.5929375 L149.264564,12.592125 L149.264564,6.032 C149.264564,3.947125 147.97664,3.0095 146.688716,3.0095 C145.347128,3.0095 143.860569,4.0893125 143.860569,5.5453125 L143.860569,12.592125 L140.606318,12.592125 L140.607119,0.3745625 L141.037228,0.6800625 C141.55464,0.973375 142.170569,1.158625 142.81373,1.158625 C143.336749,1.158625 143.932655,1.025375 144.394,0.81575 C144.394,0.81575 145.379967,0.4103125 145.743598,0.3055" id="Fill-19" fill="#005EB8"></path>
                <path d="M165.299541,12.0796 C165.736057,11.899225 166.214223,11.7862875 166.71882,11.7862875 C167.571029,11.7862875 168.358361,12.090975 168.971887,12.6061 L168.978294,0.3755375 L168.564204,0.680225 C168.029972,0.97435 167.418849,1.1596 166.77729,1.1596 C166.242256,1.1596 165.640745,1.02635 165.19782,0.816725 C165.19782,0.816725 165.107313,0.771225 164.980764,0.7176 C164.886252,0.6907875 164.36083,0.4502875 164.199038,0.3836625 C164.167801,0.3836625 163.948342,0.322725 163.871451,0.299975 C163.871451,0.299975 163.246711,0.1626625 162.913517,0.1480375 C162.804588,0.14235 162.71328,0.1317875 162.610759,0.1317875 L162.565906,0.1317875 L162.592337,0.1317875 L162.550688,0.1317875 C159.298038,0.1317875 156.666925,2.9869125 156.666925,6.484725 C156.720588,10.0451 159.298038,12.844975 162.550688,12.844975 C163.368455,12.844975 164.146176,12.6646 164.864626,12.3127875 L165.299541,12.0796 Z M162.872669,10.027225 C161.330043,10.027225 160.071754,8.44285 160.071754,6.484725 C160.071754,4.521725 161.330844,2.9365375 162.872669,2.9365375 C164.437721,2.9365375 165.704019,4.521725 165.704019,6.484725 C165.704019,8.4436625 164.437721,10.027225 162.872669,10.027225 L162.872669,10.027225 Z" id="Fill-21" fill="#005EB8"></path>
                <path d="M115.820666,5.5446625 C115.820666,4.5461 116.541519,3.68485 117.501055,3.5085375 C117.605979,3.4922875 119.01004,3.2534125 119.859846,4.349475 L119.859846,0.2260375 C119.859846,0.2260375 119.348841,0.130975 118.83223,0.130975 C118.05531,0.1220375 117.262372,0.3219125 116.541519,0.6786 L116.248372,0.8289125 C115.803846,1.0426 115.299249,1.157975 114.773827,1.157975 C114.11705,1.157975 113.512334,0.9735375 112.990917,0.663975 L112.568818,0.374725 L112.568818,12.5922875 L115.820666,12.5922875 L115.820666,5.5446625 Z" id="Fill-23" fill="#005EB8"></path>
            </g>
        </g>
    </g>
</svg>